<?xml version="1.0" standalone="no"?>
<!DOCTYPE svg PUBLIC "-//W3C//DTD SVG 20010904//EN"
 "http://www.w3.org/TR/2001/REC-SVG-20010904/DTD/svg10.dtd">
<svg version="1.0" xmlns="http://www.w3.org/2000/svg"
 width="1300.000000pt" height="1390.000000pt" viewBox="0 0 1300.000000 1390.000000"
 preserveAspectRatio="xMidYMid meet">

<g transform="translate(0.000000,1390.000000) scale(0.100000,-0.100000)"
fill="#000000" stroke="none">
<path d="M6815 9464 c-11 -2 -45 -9 -75 -15 -214 -41 -426 -163 -579 -333
-338 -375 -350 -956 -26 -1357 52 -64 59 -69 95 -69 39 0 40 -1 40 -33 0 -41
33 -78 52 -59 7 7 33 12 59 12 63 0 89 -22 96 -82 3 -26 11 -49 19 -52 11 -4
14 9 14 64 0 45 4 70 11 70 6 0 -24 23 -67 51 -209 136 -350 345 -399 588 -21
103 -16 301 10 401 39 149 134 311 246 421 342 335 878 345 1243 24 115 -101
230 -289 271 -445 26 -100 31 -298 10 -401 -37 -185 -122 -340 -259 -474 -131
-128 -301 -216 -471 -246 l-65 -11 0 -69 c0 -79 -6 -76 102 -55 247 48 482
193 633 391 144 189 215 401 215 639 0 141 -7 186 -29 186 -39 0 -53 52 -29
105 9 21 9 31 0 46 -7 10 -12 27 -12 37 0 29 -78 172 -134 247 -168 222 -398
364 -665 410 -76 14 -256 19 -306 9z"/>
<path d="M6928 9229 c-14 -7 -18 -23 -18 -63 0 -60 19 -88 48 -69 32 19 25
144 -7 143 -3 0 -14 -5 -23 -11z"/>
<path d="M6530 9115 c-19 -23 29 -110 61 -110 40 0 45 28 13 76 -33 48 -54 58
-74 34z"/>
<path d="M7286 9080 c-23 -42 -25 -54 -15 -66 21 -26 50 -12 76 37 26 51 22
79 -11 79 -17 0 -30 -13 -50 -50z"/>
<path d="M6917 8944 c-4 -4 -7 -94 -7 -200 0 -178 -1 -193 -18 -198 -64 -21
-101 -121 -68 -185 48 -92 193 -94 241 -2 l15 31 173 2 c156 3 172 5 175 21 8
42 -11 47 -187 47 l-166 0 -19 34 c-10 19 -31 40 -47 46 l-29 12 -2 197 -3
196 -25 3 c-14 2 -29 0 -33 -4z m73 -474 c24 -24 26 -67 3 -92 -20 -22 -70
-23 -95 -1 -40 36 -8 113 47 113 14 0 34 -9 45 -20z"/>
<path d="M6253 8843 c-7 -2 -13 -15 -13 -28 0 -17 12 -30 44 -49 51 -30 71
-32 80 -10 11 28 7 34 -41 64 -49 31 -50 32 -70 23z"/>
<path d="M7568 8823 c-35 -19 -48 -32 -48 -49 0 -36 33 -39 85 -9 45 27 56 50
33 73 -16 16 -15 16 -70 -15z"/>
<path d="M5188 8631 c-42 -6 -63 -15 -77 -32 -21 -24 -24 -36 -38 -143 l-8
-59 -65 -21 c-36 -12 -98 -38 -139 -58 l-74 -37 -64 50 c-77 61 -104 72 -139
58 -34 -12 -90 -59 -86 -71 1 -5 -2 -7 -7 -4 -13 8 -170 -161 -187 -201 -17
-40 -9 -62 50 -141 25 -33 46 -65 46 -71 0 -7 -13 -38 -30 -71 -16 -32 -41
-92 -54 -132 -27 -80 -33 -84 -124 -87 -62 -1 -108 -26 -122 -64 -6 -18 -14
-88 -16 -157 -7 -170 -7 -170 226 -235 74 -21 149 -46 166 -56 l31 -19 -13 49
c-7 27 -17 58 -23 69 -14 27 -72 52 -147 65 l-64 11 0 81 0 81 72 12 c119 21
138 39 173 167 9 33 42 108 72 167 63 123 63 128 -8 238 l-40 62 55 56 54 56
27 -20 c141 -99 147 -100 266 -36 52 28 134 62 183 77 50 14 98 33 108 42 21
18 58 130 58 173 0 26 3 28 46 32 25 2 63 2 83 0 37 -4 37 -4 49 -69 19 -98
43 -138 94 -156 24 -8 69 -24 101 -35 l58 -20 -5 41 c-3 23 -8 68 -11 99 -6
51 -9 57 -35 66 -26 10 -28 15 -34 84 -14 146 -30 158 -220 163 -72 2 -157 0
-188 -4z"/>
<path d="M8287 8591 c-62 -13 -61 -12 -59 -158 l2 -92 29 10 c31 11 57 53 63
104 2 24 9 31 33 35 58 10 72 2 80 -46 8 -56 37 -88 95 -104 25 -6 71 -25 103
-41 70 -35 92 -36 139 -4 20 14 40 25 44 25 5 0 23 -14 40 -31 l33 -32 -23
-36 c-40 -63 -41 -77 -8 -139 16 -32 38 -83 48 -116 21 -66 40 -83 105 -94
l44 -8 0 -49 0 -48 -52 -12 c-68 -16 -79 -26 -98 -93 -9 -32 -30 -83 -47 -114
-33 -63 -31 -87 11 -147 l20 -28 -33 -38 -34 -38 -43 31 c-24 18 -53 32 -65
32 -13 0 -55 -16 -94 -36 -39 -19 -87 -38 -106 -41 -41 -7 -61 -32 -78 -100
l-12 -48 -44 2 c-48 1 -55 9 -64 64 -8 50 -33 72 -107 93 -33 9 -78 28 -99 41
-50 32 -71 31 -131 -2 l-49 -28 -31 31 -31 31 26 47 c29 53 33 92 10 121 -15
19 -17 18 -74 -42 -33 -35 -67 -77 -75 -93 -15 -29 -15 -33 5 -65 30 -49 147
-155 171 -155 18 0 84 42 100 62 4 7 104 -30 169 -62 9 -4 18 -28 22 -61 4
-33 13 -58 24 -66 42 -31 229 -30 263 1 12 11 21 38 26 71 6 51 8 54 43 66 20
6 59 23 85 36 l49 24 43 -35 c24 -20 52 -36 63 -36 39 0 192 149 192 187 0 12
-14 42 -31 66 l-31 44 34 86 c35 90 42 97 104 97 55 0 69 28 72 144 4 140 -6
155 -109 171 -33 5 -38 9 -49 51 -7 25 -23 60 -35 78 -25 36 -23 47 16 97 16
20 29 46 29 58 0 37 -153 191 -191 191 -9 0 -36 -16 -61 -36 l-46 -35 -44 22
c-23 12 -61 28 -83 34 -42 13 -52 30 -54 91 -2 50 -27 64 -122 69 -46 2 -101
0 -122 -4z"/>
<path d="M3159 8577 c-214 -61 -326 -297 -234 -495 35 -75 104 -144 178 -178
54 -25 73 -29 152 -28 74 0 100 5 145 26 70 32 141 102 176 176 25 50 28 69
28 152 0 115 -19 164 -94 244 -88 94 -234 136 -351 103z"/>
<path d="M9694 8460 c-181 -37 -307 -220 -275 -395 23 -124 89 -210 201 -264
79 -37 201 -37 281 1 80 36 134 89 171 167 29 59 32 75 32 151 0 71 -5 94 -28
142 -14 31 -45 75 -67 98 -76 78 -213 121 -315 100z"/>
<path d="M6145 8444 c-9 -9 -14 -23 -11 -31 3 -8 6 -17 6 -19 0 -2 26 -4 58
-4 74 0 100 21 66 54 -21 21 -97 21 -119 0z"/>
<path d="M7626 8444 c-34 -34 -6 -56 65 -52 96 6 89 68 -7 68 -25 0 -49 -6
-58 -16z"/>
<path d="M6287 8083 c-35 -20 -47 -32 -47 -50 0 -35 26 -39 78 -10 51 28 65
59 35 76 -14 7 -30 3 -66 -16z"/>
<path d="M7532 8098 c-23 -23 -12 -47 33 -73 53 -32 79 -30 83 6 3 21 -5 30
-46 52 -57 31 -54 31 -70 15z"/>
<path d="M8294 8036 c-90 -41 -148 -127 -148 -221 -2 -209 248 -313 395 -164
64 65 84 148 59 240 -12 43 -72 111 -120 134 -46 24 -146 29 -186 11z"/>
<path d="M5175 7951 c-218 -63 -376 -220 -434 -431 -59 -214 0 -440 159 -600
130 -132 270 -185 464 -178 181 8 311 68 433 201 173 190 207 486 79 709 -49
86 -90 134 -166 193 -69 53 -116 77 -204 104 -87 27 -242 28 -331 2z m323
-113 c71 -23 167 -83 210 -133 17 -18 33 -31 37 -27 4 4 5 3 4 -3 -2 -5 9 -31
24 -57 122 -205 91 -456 -77 -624 -321 -321 -867 -94 -868 361 -1 348 336 591
670 483z"/>
<path d="M6568 7833 c-26 -30 -48 -81 -42 -97 3 -9 17 -16 30 -16 31 0 83 84
67 109 -15 23 -37 25 -55 4z"/>
<path d="M7270 7830 c-16 -29 32 -110 65 -110 31 0 38 25 19 63 -34 67 -64 84
-84 47z"/>
<path d="M6917 7744 c-14 -15 -8 -111 9 -125 30 -25 49 1 49 67 0 56 -1 59
-25 62 -14 2 -29 0 -33 -4z"/>
<path d="M3374 7650 c-94 -47 -108 -108 -75 -331 11 -79 48 -340 81 -579 33
-239 62 -448 65 -465 3 -16 -20 -175 -51 -355 -44 -255 -61 -332 -78 -356 -11
-18 -93 -123 -181 -234 -222 -280 -218 -273 -213 -342 7 -96 74 -160 168 -160
89 0 79 -10 372 360 113 142 189 248 196 270 6 20 27 132 47 247 19 116 39
218 43 228 6 15 35 -8 170 -134 l164 -152 -8 -297 c-4 -163 -4 -314 0 -334 10
-53 65 -110 121 -126 82 -23 174 24 204 103 7 18 11 160 11 395 0 335 -2 371
-19 408 -24 52 -51 80 -311 311 -118 105 -235 209 -259 231 l-44 40 -27 191
c-14 105 -23 191 -20 191 4 0 17 -12 31 -26 48 -52 212 -113 396 -149 110 -21
170 -15 214 23 84 70 76 209 -14 268 -18 12 -61 29 -97 38 -36 10 -114 33
-175 53 -101 33 -114 41 -165 92 -77 77 -197 261 -269 411 -63 133 -97 174
-152 190 -50 15 -79 12 -125 -10z m153 -115 c20 -14 22 -26 25 -120 3 -100 2
-105 -18 -105 -11 0 -25 5 -32 12 -9 9 -12 9 -12 0 0 -7 -10 -12 -23 -12 -33
0 -47 18 -47 62 0 31 6 42 40 69 41 33 52 59 25 59 -8 0 -15 -7 -15 -15 0 -9
-9 -15 -25 -15 -20 0 -25 5 -25 24 0 47 64 71 107 41z"/>
<path d="M3482 7408 c-17 -17 -15 -48 3 -48 10 0 15 10 15 30 0 34 -1 35 -18
18z"/>
<path d="M9520 7568 c-31 -9 -33 -11 -15 -18 37 -14 44 -34 47 -138 3 -97 2
-102 -17 -102 -12 0 -26 5 -33 12 -9 9 -12 9 -12 0 0 -7 -10 -12 -23 -12 -33
0 -47 18 -47 62 0 31 6 42 40 69 41 33 52 59 25 59 -8 0 -15 -7 -15 -15 0 -10
-10 -15 -28 -15 -25 0 -31 -9 -70 -90 -81 -173 -224 -380 -296 -430 -26 -17
-103 -47 -202 -76 -87 -26 -173 -58 -190 -70 -64 -47 -84 -151 -41 -214 34
-52 76 -71 150 -71 126 0 400 87 469 149 46 42 45 52 14 -172 l-24 -170 -59
-50 c-32 -28 -108 -96 -168 -151 -61 -55 -151 -136 -200 -180 -199 -180 -185
-134 -185 -580 0 -354 1 -361 23 -399 31 -55 97 -90 155 -82 60 8 81 22 99 64
8 20 24 43 35 51 20 14 20 20 13 320 l-7 306 39 34 c21 19 91 84 156 144 65
60 120 107 123 104 4 -3 26 -114 49 -247 l43 -241 59 -75 c32 -41 69 -89 83
-107 140 -182 179 -225 205 -224 31 0 42 -14 51 -63 11 -65 19 -65 22 -3 l3
63 39 0 40 0 0 -90 c0 -83 1 -90 20 -90 19 0 20 7 20 90 l0 90 40 0 40 0 0
-80 c0 -44 4 -80 9 -80 15 0 70 69 77 96 4 14 4 45 1 70 -5 48 -16 64 -269
382 l-127 159 -56 318 -56 318 21 151 c163 1170 150 1070 139 1110 -25 89
-119 141 -209 114z"/>
<path d="M6590 7485 c0 -42 3 -55 15 -55 12 0 15 13 15 55 0 42 -3 55 -15 55
-12 0 -15 -13 -15 -55z"/>
<path d="M6700 7470 c0 -63 2 -70 20 -70 18 0 20 7 20 70 0 63 -2 70 -20 70
-18 0 -20 -7 -20 -70z"/>
<path d="M6820 7450 c0 -40 4 -70 10 -70 6 0 10 30 10 70 0 40 -4 70 -10 70
-6 0 -10 -30 -10 -70z"/>
<path d="M6922 7447 c2 -59 6 -72 21 -75 15 -3 17 5 17 66 0 62 -2 70 -20 75
-20 5 -21 2 -18 -66z"/>
<path d="M9482 7408 c-17 -17 -15 -48 3 -48 10 0 15 10 15 30 0 34 -1 35 -18
18z"/>
<path d="M6340 7253 c-45 -7 -97 -35 -108 -56 -6 -12 -22 -60 -37 -107 -28
-88 -63 -165 -97 -213 -31 -43 -20 -105 31 -179 23 -33 41 -63 41 -67 0 -3
-24 -31 -54 -60 l-54 -53 -61 42 c-84 57 -122 67 -169 42 -131 -68 -168 -83
-251 -109 -87 -26 -95 -31 -116 -68 -13 -22 -30 -70 -37 -107 -13 -73 -20 -78
-107 -78 -52 0 -66 15 -80 90 -13 67 -31 110 -53 127 -7 5 -53 22 -103 37 -49
15 -133 50 -185 78 -88 47 -96 49 -130 39 -44 -13 -162 -87 -174 -110 -5 -9
-31 -37 -57 -62 l-49 -45 33 -31 c72 -69 95 -67 198 12 l70 54 56 -31 c30 -17
92 -44 136 -59 l82 -28 13 -86 c15 -108 31 -131 99 -145 57 -12 228 -15 289
-5 99 16 118 39 129 151 4 39 10 75 13 80 4 5 38 19 76 32 37 13 95 36 129 53
33 16 65 29 71 29 6 0 40 -23 76 -50 107 -84 116 -82 259 55 172 166 187 202
120 286 -77 94 -76 86 -30 182 22 47 48 110 58 141 l17 55 77 7 c46 4 90 14
107 24 31 19 48 59 29 65 -7 2 -55 20 -108 40 -53 19 -103 34 -110 34 -8 -1
-25 -4 -39 -6z"/>
<path d="M1828 3774 c-17 -5 -18 -29 -19 -300 -1 -162 -2 -306 -3 -321 -1 -26
2 -28 42 -31 29 -2 42 1 43 10 0 7 1 62 2 122 l2 109 85 3 c167 5 258 66 274
184 12 91 -23 158 -109 203 -34 18 -59 22 -170 24 -71 1 -138 -1 -147 -3z
m260 -89 c93 -38 96 -177 5 -220 -19 -10 -38 -25 -40 -35 -7 -25 -97 -22 -135
3 -27 18 -27 19 -27 143 l0 124 80 0 c47 0 94 -6 117 -15z"/>
<path d="M3312 3768 c-19 -19 -15 -66 7 -78 34 -18 69 -12 87 15 15 23 15 27
0 50 -18 28 -72 35 -94 13z"/>
<path d="M5287 3773 c-3 -5 -4 -152 -3 -328 l1 -320 40 0 40 0 0 262 c0 256 0
261 17 219 27 -70 208 -337 226 -334 17 3 158 222 204 316 16 34 31 62 31 62
1 0 1 -120 -1 -266 l-3 -265 43 3 43 3 0 325 0 325 -34 0 c-34 0 -37 -4 -143
-170 -59 -93 -113 -182 -119 -197 -14 -35 -23 -35 -38 -1 -7 15 -62 102 -122
194 -104 158 -123 178 -166 179 -6 0 -14 -3 -16 -7z"/>
<path d="M4690 3721 c-21 -6 -26 -14 -30 -56 l-5 -50 -42 -3 c-42 -3 -43 -4
-43 -38 0 -34 0 -34 45 -34 l45 0 0 -174 c-1 -195 6 -223 60 -246 33 -14 115
-9 162 9 23 9 26 14 19 33 -8 21 -14 23 -64 20 -46 -3 -59 0 -76 17 -20 20
-21 32 -21 181 l0 159 73 3 72 3 0 30 0 30 -72 3 -73 3 0 59 c0 63 -1 65 -50
51z"/>
<path d="M11040 3721 c-34 -9 -41 -64 -11 -89 19 -15 21 -30 24 -120 2 -100 2
-102 -20 -102 -22 0 -23 -3 -23 -106 0 -155 25 -195 123 -193 55 1 122 21 121
37 -4 45 -2 44 -53 37 -101 -14 -111 6 -111 211 l0 144 75 0 75 0 0 35 0 35
-75 0 -75 0 0 60 c0 63 -1 65 -50 51z"/>
<path d="M6841 3618 c-19 -5 -54 -23 -77 -39 -23 -16 -45 -29 -47 -29 -2 0 -7
14 -10 30 -6 25 -11 30 -37 30 l-30 0 0 -245 0 -245 40 0 c35 0 40 3 40 23 1
12 1 83 0 157 -1 153 10 188 69 227 37 25 103 31 144 12 47 -21 52 -42 55
-237 l4 -183 40 3 40 3 -1 188 c-2 213 -11 253 -65 286 -38 23 -119 33 -165
19z"/>
<path d="M9175 3625 c-5 -2 -26 -6 -46 -9 -20 -4 -54 -22 -77 -42 l-41 -35 -9
33 c-6 26 -14 34 -35 36 l-27 3 0 -245 0 -246 40 0 40 0 0 176 0 176 39 39
c34 35 44 39 88 39 45 0 63 -8 95 -43 1 -1 4 -87 7 -192 l6 -190 40 0 40 0 5
175 c4 145 8 179 23 201 22 34 57 49 111 49 36 0 63 -13 88 -43 1 -1 4 -87 7
-192 l6 -190 40 0 40 0 -1 185 c-1 249 -17 290 -117 309 -68 12 -130 -4 -173
-44 l-36 -34 -37 39 c-21 22 -47 40 -59 40 -11 0 -26 2 -34 4 -7 3 -17 3 -23
1z"/>
<path d="M10606 3622 c-41 -4 -74 -20 -117 -60 l-27 -24 -12 36 c-9 29 -16 36
-38 36 l-27 0 1 -243 2 -242 38 0 39 0 5 170 c5 185 10 201 64 234 58 36 160
21 182 -26 5 -10 11 -99 14 -198 l5 -180 40 0 40 0 0 185 c0 161 -3 191 -19
228 -30 66 -91 93 -190 84z"/>
<path d="M2494 3610 c-12 -4 -30 -20 -42 -34 -25 -33 -28 -33 -41 4 -7 23 -16
30 -35 30 l-26 0 0 -245 0 -245 39 0 40 0 3 186 3 186 29 25 c25 21 37 24 82
21 57 -3 64 3 64 60 0 20 -5 22 -47 21 -27 0 -58 -4 -69 -9z"/>
<path d="M2823 3614 c-40 -9 -110 -81 -127 -131 -18 -53 -21 -160 -6 -214 33
-119 166 -185 300 -149 67 18 134 91 150 163 28 124 -8 246 -88 302 -39 27
-52 30 -125 32 -45 0 -92 -1 -104 -3z m134 -64 c27 0 81 -61 93 -105 16 -58 8
-163 -16 -204 -48 -81 -177 -81 -235 0 -27 39 -38 165 -19 223 19 57 88 100
145 90 11 -2 25 -4 32 -4z"/>
<path d="M3685 3601 c-104 -47 -152 -196 -110 -338 28 -95 91 -142 200 -151
64 -5 153 14 189 41 16 12 17 17 6 38 -7 13 -14 25 -15 27 -1 1 -23 -7 -50
-19 -61 -27 -151 -23 -193 8 -35 26 -60 69 -64 113 l-3 35 178 3 177 2 0 63
c0 83 -30 143 -85 174 -52 30 -170 32 -230 4z m193 -68 c25 -15 42 -51 42 -88
0 -24 -1 -24 -125 -27 -69 -2 -130 -1 -135 0 -25 9 9 95 44 114 54 29 129 30
174 1z"/>
<path d="M4234 3606 c-83 -36 -132 -150 -122 -280 11 -137 77 -204 206 -213
50 -4 81 0 122 14 58 20 69 36 48 66 -12 17 -16 17 -50 2 -90 -37 -173 -8
-216 75 -20 38 -23 56 -19 117 5 83 32 134 81 155 35 14 120 14 157 0 23 -9
28 -7 38 14 6 14 11 29 11 34 0 28 -199 41 -256 16z"/>
<path d="M6161 3604 c-70 -19 -71 -20 -59 -54 12 -35 6 -34 75 -14 68 20 166
15 190 -8 9 -9 18 -39 21 -66 l4 -50 -108 -3 c-87 -3 -116 -8 -144 -25 -49
-28 -80 -78 -80 -128 0 -86 56 -136 151 -136 71 0 104 12 146 52 24 23 34 28
37 17 24 -67 26 -69 54 -69 l29 0 -9 58 c-4 31 -5 118 -2 193 8 163 -3 200
-70 230 -50 23 -157 24 -235 3z m219 -303 c0 -39 -5 -53 -26 -74 -46 -46 -161
-52 -191 -11 -16 22 -17 68 -2 95 15 30 45 38 137 38 l82 1 0 -49z"/>
<path d="M7323 3610 c-65 -14 -85 -27 -77 -53 11 -37 19 -39 75 -23 88 27 177
18 201 -18 4 -6 8 -33 8 -61 l0 -50 -82 3 c-131 6 -201 -25 -234 -104 -19 -45
-18 -68 6 -113 46 -92 200 -99 292 -14 l27 25 12 -41 c10 -34 16 -41 38 -41
l26 0 0 203 c0 221 -3 236 -61 274 -30 19 -164 27 -231 13z m207 -303 c0 -75
-50 -117 -140 -117 -41 0 -56 5 -75 25 -28 27 -30 38 -14 82 14 42 40 52 142
52 l87 1 0 -43z"/>
<path d="M8049 3589 c5 -26 13 -35 39 -41 l32 -9 0 -128 c0 -117 -2 -131 -23
-162 -12 -18 -34 -39 -47 -46 -37 -19 -101 -16 -137 7 -62 37 -82 193 -36 273
11 19 39 43 68 58 49 25 72 59 41 59 -9 0 -16 -7 -16 -15 0 -9 -9 -15 -25 -15
-18 0 -25 5 -25 20 0 24 -3 24 -39 6 -81 -42 -128 -150 -117 -267 7 -79 19
-115 49 -148 66 -72 214 -81 285 -18 l22 20 0 -45 c0 -58 -15 -100 -42 -117
-34 -21 -135 -25 -193 -7 -27 8 -50 14 -51 13 -1 -1 -5 -18 -9 -38 -8 -45 0
-49 111 -56 157 -11 241 33 263 137 6 29 11 153 11 285 0 270 7 254 -106 263
l-62 5 7 -34z"/>
<path d="M8480 3605 c-46 -21 -77 -51 -103 -100 -18 -33 -22 -57 -22 -140 0
-84 3 -107 22 -142 40 -74 114 -113 214 -113 50 0 134 22 163 43 16 12 17 16
5 38 -8 13 -14 25 -15 27 -1 1 -21 -7 -45 -18 -90 -40 -210 -15 -241 51 -9 19
-18 50 -20 69 l-3 35 179 3 179 2 -5 74 c-5 81 -25 126 -71 160 -38 28 -184
34 -237 11z m188 -71 c25 -17 42 -52 42 -90 0 -24 0 -24 -112 -25 -62 0 -121
-2 -130 -4 -24 -4 -31 9 -23 43 19 86 143 128 223 76z"/>
<path d="M9922 3603 c-87 -43 -128 -131 -120 -262 5 -88 31 -147 80 -185 68
-51 197 -59 292 -17 l47 20 -16 30 -15 30 -43 -19 c-89 -41 -208 -15 -240 52
-9 19 -18 50 -19 69 l-3 34 179 3 179 2 -5 74 c-9 134 -67 186 -204 186 -52 0
-90 -6 -112 -17z m190 -65 c23 -11 48 -60 48 -92 l0 -25 -126 -3 c-69 -2 -131
0 -137 4 -17 11 10 86 39 104 48 32 128 37 176 12z"/>
<path d="M3318 3333 c-3 -304 -6 -317 -61 -331 -27 -7 -33 -13 -35 -41 l-3
-34 57 5 c46 4 62 10 80 31 39 45 44 89 44 375 l0 272 -39 0 -39 0 -4 -277z"/>
<path d="M10970 3585 c0 -8 -9 -15 -20 -15 -11 0 -20 -7 -20 -15 0 -19 20 -19
48 1 25 17 29 44 7 44 -8 0 -15 -7 -15 -15z"/>
<path d="M0 450 l0 -450 6500 0 6500 0 0 450 0 450 -6500 0 -6500 0 0 -450z
m780 50 l0 -200 -35 0 -35 0 0 200 0 200 35 0 35 0 0 -200z m-115 105 c24 -23
25 -30 25 -149 0 -68 3 -131 6 -140 5 -13 -1 -16 -30 -16 -27 0 -36 4 -36 17
0 15 -2 14 -20 -2 -22 -20 -63 -23 -85 -5 -8 6 -17 28 -21 47 -9 50 15 94 70
129 38 23 46 34 44 54 -4 31 -32 33 -36 3 -3 -19 -10 -23 -38 -23 -31 0 -34 2
-34 30 0 46 39 80 90 80 30 0 47 -6 65 -25z m273 19 c41 -11 52 -51 52 -194
l0 -130 -29 0 c-16 0 -31 6 -34 13 -4 10 -7 10 -18 0 -18 -18 -74 -16 -93 3
-21 20 -21 93 -1 122 9 12 36 36 61 53 34 23 44 36 42 52 -4 29 -30 28 -43 0
-7 -17 -18 -23 -44 -23 -32 0 -33 1 -27 33 11 59 66 89 134 71z m234 -13 c12
-19 12 -19 36 0 30 23 55 24 76 3 13 -13 16 -42 16 -165 l0 -149 -30 0 -30 0
0 113 c0 123 -6 157 -25 157 -21 0 -25 -25 -25 -151 l0 -119 -35 0 -34 0 -3
133 c-3 109 -6 132 -18 132 -12 0 -15 -23 -18 -132 l-3 -133 -34 0 -35 0 0
160 0 160 35 0 c21 0 35 -5 35 -12 0 -8 6 -6 17 5 23 23 60 22 75 -2z m220
-121 c3 -121 4 -125 26 -128 22 -3 22 -3 22 127 0 80 4 131 10 132 59 7 55 20
58 -166 2 -94 0 -184 -3 -201 -7 -39 -38 -54 -110 -54 -54 0 -55 0 -55 30 0
27 3 30 34 30 49 0 66 9 66 35 0 23 -1 23 -30 9 -36 -18 -66 -6 -80 32 -6 14
-10 83 -10 154 l0 129 28 3 c15 2 30 1 34 -2 4 -3 9 -62 10 -130z m9943 90 c0
-27 -4 -50 -10 -50 -5 0 -10 23 -10 50 0 28 5 50 10 50 6 0 10 -22 10 -50z
m470 0 c0 -27 -4 -50 -10 -50 -5 0 -10 23 -10 50 0 28 5 50 10 50 6 0 10 -22
10 -50z m93 38 c7 -7 12 -24 12 -38 0 -34 -17 -50 -52 -50 -27 0 -28 2 -28 50
0 48 1 50 28 50 15 0 33 -5 40 -12z m168 3 c-37 -8 -55 -34 -40 -58 16 -27 54
-29 54 -5 0 11 -6 23 -12 25 -8 3 -6 6 5 6 12 1 17 -7 17 -29 0 -26 -4 -30
-28 -30 -35 0 -52 16 -52 52 0 30 22 48 60 47 23 -1 23 -2 -4 -8z m104 -6 c10
-12 10 -18 0 -30 -7 -8 -19 -15 -26 -15 -8 0 -14 -9 -14 -20 0 -11 -4 -20 -10
-20 -5 0 -10 23 -10 50 0 46 2 50 24 50 13 0 29 -7 36 -15z m72 -19 c2 -19 1
-43 -3 -53 -7 -16 -8 -16 -8 -1 -1 10 -11 18 -26 20 l-25 3 22 32 c13 18 26
33 29 33 4 0 9 -15 11 -34z m77 12 c-2 -13 0 -29 5 -36 11 -18 -12 -42 -38
-41 -20 2 -20 2 2 6 27 5 31 42 5 44 -17 1 -17 2 0 6 9 2 17 11 17 20 0 10 -6
14 -20 10 -11 -3 -18 -1 -14 4 3 5 14 9 25 9 15 0 20 -6 18 -22z m126 2 c3
-11 10 -20 15 -20 5 0 12 9 15 20 3 11 11 20 16 20 5 0 3 -13 -6 -30 -8 -16
-15 -38 -15 -50 0 -11 -4 -20 -10 -20 -5 0 -10 9 -10 20 0 32 -22 70 -41 70
-22 0 -28 -16 -21 -57 3 -21 0 -33 -7 -33 -6 0 -11 18 -11 44 0 34 -4 46 -17
49 -10 3 5 5 34 6 43 1 53 -2 58 -19z m-978 -45 l1 -40 -6 35 c-4 22 -13 35
-22 35 -9 0 -17 -13 -21 -35 l-6 -35 -2 38 c-1 25 -6 37 -15 37 -16 0 -31 -34
-21 -49 3 -5 1 -12 -5 -16 -6 -4 -10 9 -10 33 l0 39 53 -1 52 -1 2 -40z m81 4
c3 -34 1 -36 -25 -35 -35 1 -46 35 -14 43 26 7 27 20 4 27 -11 3 -7 4 7 3 21
-2 25 -8 28 -38z m82 -18 c-5 -51 -7 -56 -30 -58 -25 -3 -25 -3 -2 7 12 5 22
14 22 19 0 5 -10 11 -22 13 -15 2 -24 11 -26 26 -5 37 5 51 35 50 28 -1 28 -1
23 -57z m88 37 c3 -13 -3 -18 -22 -18 -32 0 -34 -17 -3 -30 22 -10 22 -10 -3
-7 -26 2 -38 32 -26 63 8 21 50 14 54 -8z m232 12 c0 -5 -4 -10 -10 -10 -5 0
-10 5 -10 10 0 6 5 10 10 10 6 0 10 -4 10 -10z m0 -60 c0 -5 -4 -10 -10 -10
-5 0 -10 5 -10 10 0 6 5 10 10 10 6 0 10 -4 10 -10z m-190 -190 c0 -47 -3 -60
-15 -60 -12 0 -15 13 -15 60 0 47 3 60 15 60 12 0 15 -13 15 -60z m-580 10 c0
-11 5 -20 10 -20 6 0 10 9 10 21 0 29 32 21 41 -11 l6 -25 8 28 c7 28 25 38
25 13 0 -27 -22 -76 -35 -76 -7 0 -16 15 -20 33 l-8 32 -6 -30 c-9 -44 -33
-37 -47 13 -11 35 -11 42 2 42 8 0 14 -9 14 -20z m140 0 c0 -11 5 -20 10 -20
6 0 10 9 10 21 0 29 32 21 41 -11 l6 -25 8 28 c11 42 28 33 20 -10 -8 -46 -12
-53 -29 -53 -8 0 -17 15 -21 33 l-8 32 -6 -30 c-9 -44 -33 -37 -47 13 -11 35
-11 42 2 42 8 0 14 -9 14 -20z m140 0 c0 -11 5 -20 10 -20 6 0 10 9 10 21 0
29 32 21 41 -11 l6 -25 8 28 c7 28 25 38 25 13 0 -27 -22 -76 -35 -76 -7 0
-16 15 -20 33 l-7 32 -10 -33 c-12 -43 -29 -36 -45 16 -10 35 -9 42 3 42 8 0
14 -9 14 -20z m235 8 c2 -7 6 -27 8 -44 5 -30 4 -31 -32 -30 -31 1 -36 4 -36
26 0 17 7 26 25 31 24 7 24 7 3 8 -13 1 -23 6 -23 11 0 15 50 12 55 -2z m153
-5 c5 -10 9 -29 7 -43 -1 -20 -7 -24 -36 -25 -30 0 -34 3 -34 25 0 17 7 26 25
31 24 7 24 7 3 8 -31 1 -29 21 2 21 13 0 28 -8 33 -17z m162 -4 c12 -22 7 -62
-8 -67 -8 -2 -12 9 -12 32 0 25 -4 36 -15 36 -10 0 -15 -11 -15 -35 0 -44 -18
-46 -22 -3 -4 46 -28 49 -28 4 0 -25 -4 -36 -15 -36 -11 0 -15 12 -15 44 l0
43 60 0 c48 0 63 -4 70 -18z m55 -6 l8 -28 10 28 c13 33 42 38 31 5 -19 -61
-45 -108 -59 -108 -18 0 -20 17 -3 22 10 4 9 16 -4 56 -13 41 -13 52 -3 52 7
0 16 -12 20 -27z m175 18 c0 -5 -9 -11 -20 -14 -11 -3 -20 -13 -20 -22 0 -9 9
-19 20 -22 23 -6 27 -23 6 -23 -31 0 -46 13 -46 39 0 15 5 32 12 39 14 14 48
16 48 3z m90 -5 c28 -35 -11 -93 -47 -70 -36 22 -23 84 17 84 10 0 23 -7 30
-14z m162 -21 c9 -33 4 -55 -12 -55 -5 0 -10 16 -10 35 0 24 -5 35 -15 35 -10
0 -15 -11 -15 -35 0 -44 -18 -46 -22 -3 -4 46 -28 49 -28 4 0 -25 -4 -36 -15
-36 -11 0 -15 12 -15 44 l0 44 62 -2 c60 -1 62 -2 70 -31z m-891 -48 c-13 -13
-26 -3 -16 12 3 6 11 8 17 5 6 -4 6 -10 -1 -17z m550 0 c-13 -13 -26 -3 -16
12 3 6 11 8 17 5 6 -4 6 -10 -1 -17z"/>
<path d="M592 427 c-26 -27 -28 -55 -7 -63 24 -9 42 12 43 51 2 41 -6 44 -36
12z"/>
<path d="M893 438 c-30 -32 -31 -78 -3 -78 25 0 32 17 28 65 l-3 37 -22 -24z"/>
<path d="M11850 580 c0 -33 3 -41 16 -38 26 5 41 35 28 56 -6 9 -19 18 -28 20
-13 3 -16 -5 -16 -38z"/>
<path d="M12130 600 c0 -11 7 -20 15 -20 8 0 15 9 15 20 0 11 -7 20 -15 20 -8
0 -15 -9 -15 -20z"/>
<path d="M12210 590 c-9 -16 -8 -20 5 -20 8 0 15 9 15 20 0 11 -2 20 -5 20 -2
0 -9 -9 -15 -20z"/>
<path d="M11500 555 c0 -8 7 -15 15 -15 8 0 15 7 15 15 0 8 -7 15 -15 15 -8 0
-15 -7 -15 -15z"/>
<path d="M11584 586 c-8 -22 3 -49 19 -43 6 2 12 14 12 27 0 27 -22 39 -31 16z"/>
<path d="M11675 590 c-3 -5 3 -10 15 -10 12 0 18 5 15 10 -3 6 -10 10 -15 10
-5 0 -12 -4 -15 -10z"/>
<path d="M11657 333 c-12 -11 -8 -23 8 -23 8 0 15 7 15 15 0 16 -12 20 -23 8z"/>
<path d="M11807 333 c-12 -11 -8 -23 8 -23 8 0 15 7 15 15 0 16 -12 20 -23 8z"/>
<path d="M12283 344 c-8 -21 13 -42 28 -27 13 13 5 43 -11 43 -6 0 -13 -7 -17
-16z"/>
</g>
</svg>
